<?xml version="1.0" encoding="UTF-8"?>
<svg version="1.1" xmlns="http://www.w3.org/2000/svg" width="705" height="251">
<path d="M0 0 C2 3 2 3 2 5 C2.66 5 3.32 5 4 5 C5.4606285 7.64738916 6 8.89448334 6 12 C6.66 12 7.32 12 8 12 C8.3403125 12.61593018 8.680625 13.23186035 9.03125 13.86645508 C16.51652959 27.38748787 24.17852103 40.76593154 32.09887695 54.03710938 C36.93758744 62.16113279 41.63684815 70.3527108 46.24902344 78.60717773 C48.99594679 83.50827183 51.79834025 88.36549026 54.6953125 93.1796875 C55.30028564 94.18668701 55.90525879 95.19368652 56.52856445 96.23120117 C57.69122497 98.15793665 58.86129228 100.08022796 60.03979492 101.99731445 C60.55904541 102.85800537 61.0782959 103.71869629 61.61328125 104.60546875 C62.07516846 105.35981201 62.53705566 106.11415527 63.01293945 106.89135742 C64 109 64 109 64 113 C21.33333333 113 -21.33333333 113 -64 113 C-64.33 112.34 -64.66 111.68 -65 111 C-63.8828125 108.61523438 -63.8828125 108.61523438 -62.125 105.59375 C-61.47716553 104.47081543 -60.82933105 103.34788086 -60.16186523 102.19091797 C-59.44136888 100.96053855 -58.72074368 99.73023456 -58 98.5 C-57.26364349 97.22977017 -56.52805732 95.95909348 -55.79321289 94.68798828 C-54.27659042 92.06723795 -52.75562411 89.44908601 -51.23095703 86.83300781 C-48.56044005 82.24911102 -45.9141612 77.65135433 -43.26782227 73.0534668 C-41.42919562 69.86057894 -39.5862108 66.6702424 -37.7421875 63.48046875 C-35.15734401 59.00774933 -32.57996884 54.53080509 -30.0078125 50.05078125 C-18.66002363 30.29660387 -18.66002363 30.29660387 -14.1875 22.875 C-13.31158203 21.41707031 -13.31158203 21.41707031 -12.41796875 19.9296875 C-11.95003906 19.29289062 -11.48210937 18.65609375 -11 18 C-10.34 18 -9.68 18 -9 18 C-7.85498047 19.56054688 -7.85498047 19.56054688 -6.6171875 21.71875 C-5.95009766 22.86923828 -5.95009766 22.86923828 -5.26953125 24.04296875 C-4.80933594 24.85378906 -4.34914063 25.66460937 -3.875 26.5 C-3.40707031 27.31082031 -2.93914062 28.12164062 -2.45703125 28.95703125 C-1.29798228 30.96762641 -0.14603529 32.98196761 1 35 C0.08426462 33.31199445 -0.83264074 31.62462359 -1.75 29.9375 C-2.29140625 28.93074219 -2.8328125 27.92398438 -3.390625 26.88671875 C-4.67454401 24.58376694 -6.03825643 22.43760938 -7.5 20.25 C-9.05580306 16.87909336 -9.18114319 16.39466243 -8.25 13.0625 C-7.63125 11.5465625 -7.63125 11.5465625 -7 10 C-6.34 10 -5.68 10 -5 10 C-4.731875 9.0925 -4.46375 8.185 -4.1875 7.25 C-3.10423706 4.28528037 -2.01640543 2.3830246 0 0 Z M2 37 C3.34715912 40.55656384 4.92418579 43.82208066 6.79296875 47.1328125 C7.34146484 48.10476562 7.88996094 49.07671875 8.45507812 50.078125 C9.02677734 51.08359375 9.59847656 52.0890625 10.1875 53.125 C10.73986328 54.10726562 11.29222656 55.08953125 11.86132812 56.1015625 C15.69815897 62.87506179 19.75984186 69.47187145 24 76 C24.33 75.34 24.66 74.68 25 74 C23.69131649 71.18739773 23.69131649 71.18739773 21.7734375 67.99609375 C21.4287442 67.39877945 21.0840509 66.80146515 20.72891235 66.18605042 C19.6184329 64.26540818 18.49703764 62.35140861 17.375 60.4375 C16.64117456 59.17426498 15.90809286 57.91059759 15.17578125 56.64648438 C14.10607135 54.80040715 13.03574148 52.95472364 11.96209717 51.1109314 C9.2444646 46.44171088 6.59271891 41.73959153 4 37 C3.34 37 2.68 37 2 37 Z M-11 49 C-11.42667969 49.75539062 -11.85335937 50.51078125 -12.29296875 51.2890625 C-13.23076172 52.94035156 -13.23076172 52.94035156 -14.1875 54.625 C-14.529021 55.22803955 -14.87054199 55.8310791 -15.22241211 56.45239258 C-17.5750733 60.58035918 -19.99532755 64.66105819 -22.4609375 68.72265625 C-23.05495361 69.70733887 -23.64896973 70.69202148 -24.26098633 71.70654297 C-25.45561193 73.68328489 -26.65850655 75.6550546 -27.86987305 77.62158203 C-28.4194165 78.53407715 -28.96895996 79.44657227 -29.53515625 80.38671875 C-30.28357788 81.61201294 -30.28357788 81.61201294 -31.04711914 82.86206055 C-32.33792309 85.11130282 -32.33792309 85.11130282 -31 88 C-21.16088983 72.17125916 -21.16088983 72.17125916 -12.4609375 55.72265625 C-11 53 -11 53 -8 51 C-8.33 50.34 -8.66 49.68 -9 49 C-9.66 49 -10.32 49 -11 49 Z M-8 53 C-7.64937855 56.73996218 -6.41275449 58.98659139 -4.3125 62 C-1.94250227 65.67144156 -1.94250227 65.67144156 -2.4375 68.5 C-3.2109375 69.7375 -3.2109375 69.7375 -4 71 C-4.71775386 72.43281951 -5.42554342 73.87065991 -6.125 75.3125 C-6.74803935 76.54266164 -7.37237545 77.77217138 -8 79 C-4.76248322 80.07917226 -2.42248229 80.11425601 0.98046875 80.09765625 C2.72553711 80.09282227 2.72553711 80.09282227 4.50585938 80.08789062 C6.32827148 80.07532227 6.32827148 80.07532227 8.1875 80.0625 C10.02731445 80.05573242 10.02731445 80.05573242 11.90429688 80.04882812 C14.93624668 80.03703065 17.96809906 80.02056921 21 80 C21.33 79.34 21.66 78.68 22 78 C21.06800781 78.19464844 20.13601563 78.38929688 19.17578125 78.58984375 C11.07495093 79.31883657 11.07495093 79.31883657 7 77 C1.8166381 70.92943097 -1.49795035 63.41289599 -4.81762695 56.20898438 C-5.80236912 53.85817946 -5.80236912 53.85817946 -8 53 Z M25 76 C26 78 26 78 26 78 Z M-9 80 C-10.59468015 82.43648157 -12.12370238 84.88193607 -13.625 87.375 C-14.058125 88.07367188 -14.49125 88.77234375 -14.9375 89.4921875 C-16.02336123 91.29042903 -17.019046 93.1424488 -18 95 C-17.67 95.66 -17.34 96.32 -17 97 C-15.68 96.67 -14.36 96.34 -13 96 C-13.66 95.67 -14.32 95.34 -15 95 C-14.36771484 94.00419922 -14.36771484 94.00419922 -13.72265625 92.98828125 C-13.17480469 92.10527344 -12.62695312 91.22226563 -12.0625 90.3125 C-11.51722656 89.44238281 -10.97195313 88.57226562 -10.41015625 87.67578125 C-9.02832828 85.05375311 -8.41519827 82.91689925 -8 80 C-8.33 80 -8.66 80 -9 80 Z M-33 88 C-33 91 -33 91 -33 91 Z M-35 91 C-34 93 -34 93 -34 93 Z M-40 100 C-39 102 -39 102 -39 102 Z M-41 102 C-41 105 -41 105 -41 105 Z " fill="#B7B8B8" transform="translate(514,86)"/>
<path d="M0 0 C2.96865509 2.54456151 4.3619751 5.48994665 6 9 C5.34 9.33 4.68 9.66 4 10 C3.01 9.67 2.02 9.34 1 9 C1 9.66 1 10.32 1 11 C1.66 11 2.32 11 3 11 C3.73080266 12.97746603 4.39421747 14.98072489 5 17 C4.67 17.66 4.34 18.32 4 19 C3.34 19 2.68 19 2 19 C1.67 19.66 1.34 20.32 1 21 C-1.0625 21.625 -1.0625 21.625 -3 22 C-2.01 22.66 -1.02 23.32 0 24 C-1.875 29.75 -1.875 29.75 -3 32 C-3.433125 33.03125 -3.86625 34.0625 -4.3125 35.125 C-6.03492014 39.17524537 -8.00454166 43.07789223 -10 47 C-8.76821698 45.0224228 -7.53973455 43.04289719 -6.3125 41.0625 C-5.94527832 40.47436523 -5.57805664 39.88623047 -5.19970703 39.28027344 C-3.0701608 35.8418948 -1.16417518 32.38114569 0.625 28.75 C2.38302158 25.46795971 2.56289169 25.14020455 6.3125 23.9375 C7.199375 23.958125 8.08625 23.97875 9 24 C12 28.75 12 28.75 12 31 C13.32 30.67 14.64 30.34 16 30 C14.25 35.75 14.25 35.75 12 38 C11.67 38.99 11.34 39.98 11 41 C10.34 41 9.68 41 9 41 C8.67 41.99 8.34 42.98 8 44 C7.01 44.33 6.02 44.66 5 45 C5.495 47.475 5.495 47.475 6 50 C5.34 50 4.68 50 4 50 C4.2475 51.175625 4.2475 51.175625 4.5 52.375 C5 55 5 55 5 57 C5.99 56.67 6.98 56.34 8 56 C9.96248475 55.90796766 11.92793678 55.87487566 13.89257812 55.87402344 C15.70961243 55.86831329 15.70961243 55.86831329 17.56335449 55.86248779 C18.87276001 55.86146057 20.18216553 55.86043335 21.53125 55.859375 C23.58231006 55.84745086 25.63332783 55.83208393 27.68436432 55.81666946 C32.74843085 55.77865287 37.81223922 55.74738966 42.87646484 55.74951172 C46.40103888 55.75029775 49.92473624 55.72698858 53.44908142 55.6876297 C55.44487629 55.67206123 57.44081901 55.68252253 59.43664551 55.69329834 C60.64800171 55.67688293 61.85935791 55.66046753 63.10742188 55.64355469 C64.70934387 55.63808624 64.70934387 55.63808624 66.34362793 55.63250732 C69.24160953 55.2448894 69.24160953 55.2448894 70.86828613 52.45977783 C71.24175171 51.64805115 71.61521729 50.83632446 72 50 C75.55783472 53.327922 77.73391333 57.26885275 80.1875 61.4375 C80.65091797 62.20126953 81.11433594 62.96503906 81.59179688 63.75195312 C82.02943359 64.49251953 82.46707031 65.23308594 82.91796875 65.99609375 C83.31781982 66.66825928 83.7176709 67.3404248 84.12963867 68.03295898 C85 70 85 70 85 74 C42.33333333 74 -0.33333333 74 -43 74 C-43.33 73.34 -43.66 72.68 -44 72 C-42.8828125 69.61523438 -42.8828125 69.61523438 -41.125 66.59375 C-40.47611816 65.46888184 -39.82723633 64.34401367 -39.15869141 63.18505859 C-38.43933303 61.95658541 -37.71976434 60.72823537 -37 59.5 C-36.27320434 58.24732585 -35.54713766 56.99422849 -34.82177734 55.74072266 C-33.31429677 53.13777388 -31.80255605 50.53736423 -30.28808594 47.93847656 C-28.06148593 44.11277077 -25.85997265 40.27306869 -23.6640625 36.4296875 C-22.97798227 35.23105242 -22.2917866 34.03248341 -21.60546875 32.83398438 C-20.30200866 30.55742834 -18.99988877 28.28010436 -17.69921875 26.00195312 C-17.11011719 24.97779297 -16.52101563 23.95363281 -15.9140625 22.8984375 C-15.3979541 21.99786621 -14.8818457 21.09729492 -14.35009766 20.16943359 C-13 18 -13 18 -11 16 C-10.34 16 -9.68 16 -9 16 C-6.65130253 14.02709413 -5.99897713 12.99693138 -5 10 C-4.34 10 -3.68 10 -3 10 C-2.814375 8.63875 -2.814375 8.63875 -2.625 7.25 C-2.07890323 4.41029677 -1.42736197 2.47409409 0 0 Z M-12 49 C-12 52 -12 52 -12 52 Z M-14 52 C-13 54 -13 54 -13 54 Z M-19 61 C-18 63 -18 63 -18 63 Z M-20 63 C-20 66 -20 66 -20 66 Z M14 24 C14.33 24.99 14.66 25.98 15 27 C14.01 27.66 13.02 28.32 12 29 C12.66 27.35 13.32 25.7 14 24 Z " fill="#ABABAC" transform="translate(493,125)"/>
<path d="M0 0 C5.3937013 5.70191281 5.61485835 12.63702638 5.48046875 20.0625 C5.47622391 20.96121826 5.47197906 21.85993652 5.46760559 22.78588867 C5.45094584 25.62841012 5.41331832 28.47019645 5.375 31.3125 C5.35993671 33.25129177 5.34625119 35.19009477 5.33398438 37.12890625 C5.3010841 41.85704979 5.24939115 46.58465069 5.1875 51.3125 C-0.4225 51.3125 -6.0325 51.3125 -11.8125 51.3125 C-12.1425 50.6525 -12.4725 49.9925 -12.8125 49.3125 C-12.4825 48.3225 -12.1525 47.3325 -11.8125 46.3125 C-11.70413106 43.84587711 -11.64848809 41.40834323 -11.64453125 38.94140625 C-11.64120285 38.2226683 -11.63787445 37.50393036 -11.63444519 36.76341248 C-11.62938707 35.24454385 -11.62703652 33.72566414 -11.62719727 32.20678711 C-11.62501133 29.88702028 -11.6068459 27.56772956 -11.58789062 25.24804688 C-11.58495633 23.77083496 -11.58297178 22.29362078 -11.58203125 20.81640625 C-11.57125298 19.77873863 -11.57125298 19.77873863 -11.56025696 18.72010803 C-11.57735121 15.10471553 -11.71067141 12.32824746 -13.8125 9.3125 C-16.93127956 7.75311022 -19.38505771 7.9517166 -22.8125 8.3125 C-26.48346875 12.56295701 -26.20764676 16.79846306 -26.10546875 22.11328125 C-26.09910149 23.3678437 -26.09910149 23.3678437 -26.09260559 24.64775085 C-26.07587364 27.30716765 -26.03823226 29.965814 -26 32.625 C-25.98494604 34.43293173 -25.97125888 36.24087539 -25.95898438 38.04882812 C-25.92854548 42.47058443 -25.8698159 46.89068446 -25.8125 51.3125 C-31.4225 51.3125 -37.0325 51.3125 -42.8125 51.3125 C-42.87308594 48.54359375 -42.93367188 45.7746875 -42.99609375 42.921875 C-43.05791651 40.23776611 -43.12129038 37.55369801 -43.18481445 34.86962891 C-43.22810433 33.00540808 -43.26978361 31.14114912 -43.30981445 29.27685547 C-43.36766113 26.5959118 -43.43131405 23.915159 -43.49609375 21.234375 C-43.51280624 20.40194275 -43.52951874 19.5695105 -43.54673767 18.71185303 C-43.5766555 17.54109222 -43.5766555 17.54109222 -43.60717773 16.34667969 C-43.63049416 15.32075714 -43.63049416 15.32075714 -43.65428162 14.27410889 C-43.82171816 12.19821227 -44.25415028 10.31575255 -44.8125 8.3125 C-47.84568538 8.08358035 -50.78586713 7.96306636 -53.8125 8.3125 C-56.28490468 10.55311675 -56.75559843 12.14179529 -57.8125 15.3125 C-57.89757079 18.0440956 -57.92841565 20.74941443 -57.91015625 23.48046875 C-57.90803383 24.67268791 -57.90803383 24.67268791 -57.90586853 25.88899231 C-57.90027378 28.42603325 -57.88772228 30.96298575 -57.875 33.5 C-57.86998432 35.22070185 -57.86542153 36.94140508 -57.86132812 38.66210938 C-57.85115722 42.87896769 -57.83158084 47.09563491 -57.8125 51.3125 C-63.7525 51.3125 -69.6925 51.3125 -75.8125 51.3125 C-75.83731971 45.05029587 -75.85541659 38.78812072 -75.86743164 32.52587891 C-75.87244349 30.39794414 -75.87925472 28.27001279 -75.88793945 26.14208984 C-75.90014336 23.07388463 -75.90575993 20.00572516 -75.91015625 16.9375 C-75.91531754 15.99447021 -75.92047882 15.05144043 -75.92579651 14.07983398 C-75.92624547 8.72821596 -75.59648894 3.60781632 -74.8125 -1.6875 C-66.8925 -2.1825 -66.8925 -2.1825 -58.8125 -2.6875 C-58.4825 -0.7075 -58.1525 1.2725 -57.8125 3.3125 C-56.513125 2.136875 -56.513125 2.136875 -55.1875 0.9375 C-50.80626987 -2.65735549 -46.98534335 -3.94259001 -41.3125 -3.5625 C-35.51477922 -2.74262029 -31.81676188 0.21457118 -27.8125 4.3125 C-27.22855469 3.71501953 -27.22855469 3.71501953 -26.6328125 3.10546875 C-17.85344316 -5.20863448 -10.11229309 -6.06737586 0 0 Z " fill="#FEFEFE" transform="translate(166.8125,123.6875)"/>
<path d="M0 0 C0.85722656 -0.00257812 1.71445312 -0.00515625 2.59765625 -0.0078125 C4.9375 0.125 4.9375 0.125 7.9375 1.125 C8.2675 11.685 8.5975 22.245 8.9375 33.125 C10.2575 32.465 11.5775 31.805 12.9375 31.125 C18.27160011 28.75874506 22.42749813 27.45743997 28.09765625 29.34375 C34.90745946 32.23538618 38.58727896 36.68466825 41.9375 43.125 C45.48329075 52.63109616 44.85431542 62.89105691 40.9375 72.125 C40.6075 72.785 40.2775 73.445 39.9375 74.125 C39.2775 74.125 38.6175 74.125 37.9375 74.125 C37.73125 74.681875 37.525 75.23875 37.3125 75.8125 C34.47227314 80.58924517 30.13717789 83.43943148 24.9375 85.125 C17.24609887 85.96229177 11.19931574 85.85614967 4.9375 81.125 C4.2775 80.465 3.6175 79.805 2.9375 79.125 C2.32261719 79.558125 1.70773437 79.99125 1.07421875 80.4375 C0.26597656 80.994375 -0.54226563 81.55125 -1.375 82.125 C-2.17550781 82.681875 -2.97601563 83.23875 -3.80078125 83.8125 C-6.0625 85.125 -6.0625 85.125 -9.0625 85.125 C-9.0625 57.405 -9.0625 29.685 -9.0625 1.125 C-5.73333593 0.29270898 -3.36274145 -0.01014402 0 0 Z M9.9375 41.125 C7.72316418 47.12743173 7.60364462 52.76963854 7.625 59.125 C7.60888672 60.0840625 7.59277344 61.043125 7.57617188 62.03125 C7.57161736 68.66262655 8.08297248 74.08017064 12.8125 79.125 C14.923085 80.30241543 14.923085 80.30241543 17.4375 80.125 C20.83417201 78.7663312 21.9921574 77.21071584 23.9375 74.125 C25.97784985 68.41930739 26.27261603 63.21693374 26.25 57.1875 C26.26611328 56.33220703 26.28222656 55.47691406 26.29882812 54.59570312 C26.30327467 48.76628667 25.38476358 44.43239071 22.9375 39.125 C20.68835486 37.32568389 19.26628404 37.17431761 16.4375 36.75 C12.98719583 37.26754562 12.00849735 38.33986563 9.9375 41.125 Z " fill="#FDFDFD" transform="translate(391.0625,90.875)"/>
<path d="M0 0 C0.33 0.66 0.66 1.32 1 2 C0.67 2.66 0.34 3.32 0 4 C-0.1108598 6.50673576 -0.16409793 8.98483901 -0.16796875 11.4921875 C-0.17129715 12.23453644 -0.17462555 12.97688538 -0.17805481 13.74172974 C-0.18312087 15.31365336 -0.18546323 16.88558775 -0.18530273 18.45751953 C-0.18748508 20.8585798 -0.20563223 23.25917756 -0.22460938 25.66015625 C-0.22754422 27.18749843 -0.22952841 28.71484279 -0.23046875 30.2421875 C-0.23765427 30.95897675 -0.24483978 31.67576599 -0.25224304 32.41427612 C-0.23550605 36.08058225 -0.15008812 38.94573106 2 42 C4.84083641 43.42041821 6.85477278 43.31452272 10 43 C12.45714369 41.54331238 12.45714369 41.54331238 14 39 C14.93042954 34.07573481 15.11774713 29.31903482 15.09765625 24.31640625 C15.0962413 23.61603745 15.09482635 22.91566864 15.09336853 22.19407654 C15.08782477 19.98350534 15.07528326 17.77303996 15.0625 15.5625 C15.05747771 14.05273585 15.05291609 12.54297009 15.04882812 11.03320312 C15.03787387 7.35543507 15.0206489 3.67772788 15 0 C16.87401463 -0.1971051 18.74929097 -0.38223113 20.625 -0.5625 C21.66914063 -0.66691406 22.71328125 -0.77132812 23.7890625 -0.87890625 C27 -1 27 -1 33 0 C33 17.49 33 34.98 33 53 C27.39 53 21.78 53 16 53 C15.67 51.35 15.34 49.7 15 48 C14.46632813 48.42152344 13.93265625 48.84304687 13.3828125 49.27734375 C7.78280359 53.39499736 3.05872827 55.67063602 -4 55 C-8.56603404 53.71899561 -11.32087111 51.80423158 -14.375 48.1875 C-18.43314149 40.22729939 -18.27511649 32.99987459 -18.1875 24.1875 C-18.18685547 22.96740234 -18.18621094 21.74730469 -18.18554688 20.49023438 C-18.15223551 13.60218528 -17.85883682 6.8361039 -17 0 C-11.28596536 -1.1179633 -5.72538916 -1.26134052 0 0 Z " fill="#FDFDFD" transform="translate(339,122)"/>
<path d="M0 0 C1.26063122 3.65542852 0.77896947 6.47909548 0.11962891 10.24975586 C-0.0974472 11.5146434 -0.31452332 12.77953094 -0.53817749 14.08274841 C-0.78307289 15.46014755 -1.02816436 16.83751183 -1.2734375 18.21484375 C-1.51979089 19.63192347 -1.76543687 21.04912634 -2.01040649 22.46644592 C-2.65706263 26.19599313 -3.31365578 29.92372545 -3.972229 33.65118408 C-4.6388056 37.43498355 -5.2953875 41.22051542 -5.953125 45.00585938 C-9.78117179 66.99467235 -9.78117179 66.99467235 -11 73 C-11.63810743 76.41427042 -12.2545902 79.83247348 -12.875 83.25 C-13.05208496 84.21768311 -13.22916992 85.18536621 -13.41162109 86.18237305 C-14.26208319 90.84687775 -15.09385981 95.5121493 -15.859375 100.19140625 C-16.05490967 101.36751465 -16.05490967 101.36751465 -16.25439453 102.56738281 C-16.49718161 104.03817992 -16.73280637 105.5101814 -16.96044922 106.98339844 C-17.24092733 108.66793416 -17.61148168 110.3370562 -18 112 C-20.88415883 113.44207941 -23.41721528 113.09394887 -26.625 113.0625 C-27.81351563 113.05347656 -29.00203125 113.04445313 -30.2265625 113.03515625 C-31.59941406 113.01775391 -31.59941406 113.01775391 -33 113 C-34.37364534 109.17085806 -33.69124706 106.08092929 -32.98364258 102.13378906 C-32.80330475 101.10809311 -32.80330475 101.10809311 -32.61932373 100.06167603 C-32.21880987 97.79487187 -31.80665012 95.53034554 -31.39453125 93.265625 C-31.11046318 91.66987354 -30.82716671 90.07398456 -30.54460144 88.47796631 C-29.79544221 84.25755853 -29.03660957 80.03894786 -28.2755127 75.82067871 C-27.07547799 69.15800249 -25.89192465 62.49236256 -24.70428085 55.82746887 C-24.27095134 53.39858487 -23.83617931 50.96996255 -23.40115356 48.54138184 C-21.6049859 38.49937176 -19.86599113 28.45010599 -18.25117493 18.37701416 C-17.57788144 14.22409674 -16.85810959 10.08479047 -16.01879883 5.96191406 C-15.87170975 5.23651428 -15.72462067 4.5111145 -15.57307434 3.76373291 C-15 2 -15 2 -13 0.4375 C-8.65560588 -0.19605748 -4.38087332 -0.1531179 0 0 Z " fill="#C3C4C4" transform="translate(628,86)"/>
<path d="M0 0 C5.61 0 11.22 0 17 0 C17.53109375 1.33933594 18.0621875 2.67867188 18.609375 4.05859375 C19.3228225 5.85159997 20.03636949 7.64456661 20.75 9.4375 C21.09804687 10.31599609 21.44609375 11.19449219 21.8046875 12.09960938 C24.34667942 18.47812614 26.92735756 24.85471511 30 31 C30.66 28.36 31.32 25.72 32 23 C32.66 23 33.32 23 34 23 C34.185625 21.7315625 34.185625 21.7315625 34.375 20.4375 C35.02696959 16.85166723 35.8472721 13.4581837 37 10 C37.66 9.67 38.32 9.34 39 9 C38.505 7.515 38.505 7.515 38 6 C38.66 6 39.32 6 40 6 C39.505 4.515 39.505 4.515 39 3 C39.66 3 40.32 3 41 3 C41 2.01 41 1.02 41 0 C44.3 0 47.6 0 51 0 C48.64534413 7.56853674 45.58668021 14.69688823 42.375 21.9375 C36.56095696 35.14895217 31.08355189 48.48800127 25.6875 61.875 C25.3036615 62.82720428 24.919823 63.77940857 24.52435303 64.76046753 C22.34450768 70.1716206 20.170029 75.58490329 18 81 C14.7 81 11.4 81 8 81 C9.05903007 78.54012036 10.12177033 76.08197739 11.1875 73.625 C11.50267578 72.89490723 11.81785156 72.16481445 12.14257812 71.41259766 C14.27015824 66.53059966 16.5839306 61.82657015 19.25 57.2109375 C21.26110912 51.28235541 17.50269789 44.83227609 15.25 39.375 C14.88729004 38.48272705 14.52458008 37.5904541 14.15087891 36.67114258 C11.87573398 31.08664986 9.56161298 25.51836169 7.23046875 19.95703125 C5.69656833 16.27080071 4.18484692 12.57621325 2.6875 8.875 C2.42050293 8.22233154 2.15350586 7.56966309 1.87841797 6.8972168 C0 2.23085063 0 2.23085063 0 0 Z " fill="#FDFDFD" transform="translate(179,122)"/>
<path d="M0 0 C0.66 0 1.32 0 2 0 C8.12505729 10.60038208 8.12505729 10.60038208 10.79345703 15.23730469 C11.48466207 16.43817318 12.1759058 17.63901939 12.8671875 18.83984375 C13.2139151 19.44216827 13.5606427 20.0444928 13.9178772 20.66506958 C16.13833237 24.51781034 18.37948859 28.35775617 20.6328125 32.19140625 C21.18227539 33.13346924 21.73173828 34.07553223 22.29785156 35.04614258 C23.32634197 36.80938271 24.36183465 38.5685626 25.40527344 40.32299805 C27.86460201 44.56074897 29.62940298 48.00499665 30 53 C29.01 53.33 28.02 53.66 27 54 C26.67 54.99 26.34 55.98 26 57 C23 59 23 59 17 59 C10.565 47.615 10.565 47.615 4 36 C5.57618398 41.75138799 5.57618398 41.75138799 8.25 45.0625 C10 48 10 48 9.5 50.375 C9.005 51.24125 8.51 52.1075 8 53 C7.28654164 54.43496325 6.57848978 55.87262344 5.875 57.3125 C5.25625 58.529375 4.6375 59.74625 4 61 C8.29 61.33 12.58 61.66 17 62 C15 64 15 64 13.0546875 64.1953125 C10.02734375 64.09765625 10.02734375 64.09765625 7 64 C5.89363605 66.39068734 5.89363605 66.39068734 5 69 C5.495 69.99 5.495 69.99 6 71 C5.67 71.99 5.34 72.98 5 74 C3.68 74 2.36 74 1 74 C1 74.66 1 75.32 1 76 C3.97 75.505 3.97 75.505 7 75 C6.67 75.66 6.34 76.32 6 77 C2.7 77 -0.6 77 -4 77 C-2.31326082 72.50202887 -0.18326108 68.27113698 2 64 C1.38511719 65.0828125 1.38511719 65.0828125 0.7578125 66.1875 C0.21898437 67.115625 -0.31984375 68.04375 -0.875 69 C-1.40867187 69.928125 -1.94234375 70.85625 -2.4921875 71.8125 C-3.23855469 72.8953125 -3.23855469 72.8953125 -4 74 C-4.66 74 -5.32 74 -6 74 C-6 73.01 -6 72.02 -6 71 C-5.34 71 -4.68 71 -4 71 C-4.99 68.03 -4.99 68.03 -6 65 C-5.360625 64.87625 -4.72125 64.7525 -4.0625 64.625 C-3.0415625 64.315625 -3.0415625 64.315625 -2 64 C-1.67 63.34 -1.34 62.68 -1 62 C-0.34 62 0.32 62 1 62 C1.33 60.35 1.66 58.7 2 57 C2.66 57 3.32 57 4 57 C4.33 55.35 4.66 53.7 5 52 C4.01 52 3.02 52 2 52 C1.01 50.02 0.02 48.04 -1 46 C-3.475 46.495 -3.475 46.495 -6 47 C-4.58465326 42.16423199 -2.6634683 38.24490261 0 34 C0.99 33.505 0.99 33.505 2 33 C1.505 32.505 1.505 32.505 1 32 C-4.16315024 39.39269239 -8.59644021 47.14288698 -13 55 C-13.495 53.515 -13.495 53.515 -14 52 C-13.67 51.34 -13.34 50.68 -13 50 C-12.32650839 48.33607955 -11.6590841 46.66967972 -11 45 C-11.99 44.01 -12.98 43.02 -14 42 C-13.05125 41.731875 -12.1025 41.46375 -11.125 41.1875 C-7.74732727 40.25013412 -7.74732727 40.25013412 -6 37 C-6.3121764 34.35367713 -6.3121764 34.35367713 -7 32 C-7.66 32 -8.32 32 -9 32 C-9 31.34 -9 30.68 -9 30 C-7.68 29.67 -6.36 29.34 -5 29 C-6.32 26.69 -7.64 24.38 -9 22 C-10.52448631 24.9826906 -11.93940067 27.818202 -13 31 C-13.66 31.33 -14.32 31.66 -15 32 C-15 32.99 -15 33.98 -15 35 C-15.99 35 -16.98 35 -18 35 C-18.66 36.32 -19.32 37.64 -20 39 C-21 36 -21 36 -19.92358398 33.50732422 C-19.37001221 32.5329541 -18.81644043 31.55858398 -18.24609375 30.5546875 C-17.63830078 29.47703125 -17.03050781 28.399375 -16.40429688 27.2890625 C-15.75525391 26.16242188 -15.10621094 25.03578125 -14.4375 23.875 C-13.50454102 22.21984375 -13.50454102 22.21984375 -12.55273438 20.53125 C-9.28330389 14.77814557 -5.89644214 9.16604334 -2.14868164 3.71142578 C-0.94593972 1.99782186 -0.94593972 1.99782186 0 0 Z M4 45 C3.34 46.65 2.68 48.3 2 50 C2.99 49.34 3.98 48.68 5 48 C4.67 47.01 4.34 46.02 4 45 Z " fill="#D4D5D7" transform="translate(503,104)"/>
<path d="M0 0 C1.28197266 -0.00386719 1.28197266 -0.00386719 2.58984375 -0.0078125 C5.0625 0.125 5.0625 0.125 9.0625 1.125 C9.0625 28.515 9.0625 55.905 9.0625 84.125 C3.4525 84.125 -2.1575 84.125 -7.9375 84.125 C-8.63129248 75.64531411 -9.05870693 67.48906416 -8.5 59 C-7.69022055 46.66683735 -8.00532959 34.53144387 -8.6496582 22.19775391 C-8.98389118 15.07778529 -8.80657712 8.21132116 -7.9375 1.125 C-5.0043642 0.14728807 -3.05571006 -0.00919011 0 0 Z " fill="#FEFEFE" transform="translate(300.9375,90.875)"/>
<path d="M0 0 C2.23046875 1.16796875 2.23046875 1.16796875 3.23046875 4.16796875 C2.453125 6.6484375 2.453125 6.6484375 1.29296875 9.35546875 C0.72255859 10.70705078 0.72255859 10.70705078 0.140625 12.0859375 C-0.15972656 12.77300781 -0.46007812 13.46007812 -0.76953125 14.16796875 C-2.08953125 14.16796875 -3.40953125 14.16796875 -4.76953125 14.16796875 C-5.20265625 13.05421875 -5.63578125 11.94046875 -6.08203125 10.79296875 C-7.46864244 6.99284541 -7.46864244 6.99284541 -10.76953125 5.16796875 C-16.67675377 4.46575911 -16.67675377 4.46575911 -21.64453125 7.35546875 C-26.5372396 13.83111215 -27.1250251 21.19763802 -26.55859375 29.1171875 C-25.67078003 35.25650316 -24.28430556 38.87893316 -19.76953125 43.16796875 C-15.85750267 45.12398304 -11.04465464 44.53918062 -6.76953125 44.16796875 C-3.84406685 42.81703995 -3.84406685 42.81703995 -1.76953125 41.16796875 C-0.77953125 41.16796875 0.21046875 41.16796875 1.23046875 41.16796875 C0.92357575 44.54379176 0.59879929 46.67686136 -1.45703125 49.41796875 C-7.26058668 53.80984853 -14.68084511 54.24095394 -21.76953125 54.16796875 C-30.29263487 52.61123749 -36.57116175 48.27526294 -41.51171875 41.2265625 C-45.8503542 34.12575232 -45.91951007 25.14032036 -44.08203125 17.1953125 C-42.18420638 11.44648466 -39.64864179 5.98018045 -34.76953125 2.16796875 C-33.77953125 2.16796875 -32.78953125 2.16796875 -31.76953125 2.16796875 C-31.43953125 1.50796875 -31.10953125 0.84796875 -30.76953125 0.16796875 C-21.16805141 -5.27286983 -9.99496907 -3.44608577 0 0 Z " fill="#FDFDFD" transform="translate(280.76953125,122.83203125)"/>
<path d="M0 0 C2.96865509 2.54456151 4.3619751 5.48994665 6 9 C5.34 9.33 4.68 9.66 4 10 C3.01 9.67 2.02 9.34 1 9 C1 9.66 1 10.32 1 11 C1.66 11 2.32 11 3 11 C3.73080266 12.97746603 4.39421747 14.98072489 5 17 C4.67 17.66 4.34 18.32 4 19 C3.34 19 2.68 19 2 19 C1.67 19.66 1.34 20.32 1 21 C-1.0625 21.625 -1.0625 21.625 -3 22 C-2.01 22.66 -1.02 23.32 0 24 C-1.875 29.75 -1.875 29.75 -3 32 C-3.4228125 33.01320312 -3.845625 34.02640625 -4.28125 35.0703125 C-6.15043582 39.4461128 -8.29756802 43.65912359 -10.5 47.875 C-10.89058594 48.64585937 -11.28117187 49.41671875 -11.68359375 50.2109375 C-12.06644531 50.943125 -12.44929688 51.6753125 -12.84375 52.4296875 C-13.18599609 53.09210449 -13.52824219 53.75452148 -13.88085938 54.43701172 C-15 56 -15 56 -18 57 C-18 57.99 -18 58.98 -18 60 C-16.68 60.66 -15.36 61.32 -14 62 C-14.625 63.875 -14.625 63.875 -16 66 C-19.125 67.25 -19.125 67.25 -22 68 C-22.33 69.65 -22.66 71.3 -23 73 C-25.70716242 73.90238747 -27.23776768 74.11851302 -30.01171875 74.09765625 C-31.14770508 74.09282227 -31.14770508 74.09282227 -32.30664062 74.08789062 C-33.48516602 74.07532227 -33.48516602 74.07532227 -34.6875 74.0625 C-35.48478516 74.05798828 -36.28207031 74.05347656 -37.10351562 74.04882812 C-39.06904257 74.0370585 -41.03453085 74.01912348 -43 74 C-43.33 73.34 -43.66 72.68 -44 72 C-42.8828125 69.61523438 -42.8828125 69.61523438 -41.125 66.59375 C-40.47611816 65.46888184 -39.82723633 64.34401367 -39.15869141 63.18505859 C-38.43933303 61.95658541 -37.71976434 60.72823537 -37 59.5 C-36.27320434 58.24732585 -35.54713766 56.99422849 -34.82177734 55.74072266 C-33.31429677 53.13777388 -31.80255605 50.53736423 -30.28808594 47.93847656 C-28.06148593 44.11277077 -25.85997265 40.27306869 -23.6640625 36.4296875 C-22.97798227 35.23105242 -22.2917866 34.03248341 -21.60546875 32.83398438 C-20.30200866 30.55742834 -18.99988877 28.28010436 -17.69921875 26.00195312 C-17.11011719 24.97779297 -16.52101563 23.95363281 -15.9140625 22.8984375 C-15.3979541 21.99786621 -14.8818457 21.09729492 -14.35009766 20.16943359 C-13 18 -13 18 -11 16 C-10.34 16 -9.68 16 -9 16 C-6.65130253 14.02709413 -5.99897713 12.99693138 -5 10 C-4.34 10 -3.68 10 -3 10 C-2.814375 8.63875 -2.814375 8.63875 -2.625 7.25 C-2.07890323 4.41029677 -1.42736197 2.47409409 0 0 Z M-19 61 C-18 63 -18 63 -18 63 Z M-20 63 C-20 66 -20 66 -20 66 Z " fill="#9A9A9A" transform="translate(493,125)"/>
<path d="M0 0 C3.3 0 6.6 0 10 0 C11.03606635 4.14426542 10.83900838 6.10669449 10.10375977 10.23730469 C9.88345596 11.49830994 9.66315216 12.75931519 9.43617249 14.05853271 C9.18809337 15.42967872 8.93983372 16.80079207 8.69140625 18.171875 C8.44263501 19.57850661 8.19459303 20.98526737 7.94725037 22.39215088 C7.29527424 26.08911133 6.63341649 29.78423594 5.96948242 33.47906494 C5.29333711 37.25191117 4.62655627 41.02641037 3.95898438 44.80078125 C2.64848017 52.20217001 1.32753178 59.60164424 0 67 C-1.98 67.495 -1.98 67.495 -4 68 C-3.99777939 67.45320587 -3.99555878 66.90641174 -3.99327087 66.3430481 C-3.97119314 60.66571708 -3.95608295 54.9883982 -3.94506836 49.31103516 C-3.94003128 47.19058741 -3.93320141 45.07014315 -3.92456055 42.94970703 C-3.91246766 39.90656678 -3.90676553 36.86347234 -3.90234375 33.8203125 C-3.89718246 32.86818878 -3.89202118 31.91606506 -3.88670349 30.93508911 C-3.88662796 30.05432709 -3.88655243 29.17356506 -3.88647461 28.26611328 C-3.884254 27.48889923 -3.88203339 26.71168518 -3.87974548 25.91091919 C-3.88069314 23.91348428 -3.88069314 23.91348428 -5 22 C-4.93643399 20.12191338 -4.80025559 18.2459718 -4.625 16.375 C-4.52574219 15.30507812 -4.42648437 14.23515625 -4.32421875 13.1328125 C-3.93917237 9.41224384 -3.49901132 5.70694127 -3 2 C-2.01 2 -1.02 2 0 2 C0 1.34 0 0.68 0 0 Z " fill="#C4C5C5" transform="translate(618,86)"/>
<path d="M0 0 C2.0625 0.4375 2.0625 0.4375 4 1 C3.01 1 2.02 1 1 1 C1.01160156 1.94101563 1.02320313 2.88203125 1.03515625 3.8515625 C1.04869141 5.71941406 1.04869141 5.71941406 1.0625 7.625 C1.07410156 8.85476562 1.08570313 10.08453125 1.09765625 11.3515625 C1 15 1 15 0.43359375 18.2734375 C-0.22828202 21.08398125 -0.22828202 21.08398125 1 24 C1.09038932 25.35517718 1.12788466 26.71432232 1.12939453 28.07250977 C1.13254669 28.88667862 1.13569885 29.70084747 1.13894653 30.53968811 C1.1369223 31.4147551 1.13489807 32.28982208 1.1328125 33.19140625 C1.13376923 34.0924559 1.13472595 34.99350555 1.13571167 35.92185974 C1.13639198 37.82575551 1.13454806 39.72965361 1.13037109 41.63354492 C1.12501453 44.55457743 1.13032431 47.47545661 1.13671875 50.39648438 C1.13605806 52.24479201 1.1347771 54.09309954 1.1328125 55.94140625 C1.13483673 56.81849747 1.13686096 57.69558868 1.13894653 58.59925842 C1.11496256 64.77007489 1.11496256 64.77007489 0 67 C1.98 66.505 1.98 66.505 4 66 C3.80664062 67.08796875 3.61328125 68.1759375 3.4140625 69.296875 C3.28902344 70.00303955 3.16398438 70.7092041 3.03515625 71.43676758 C2.76040819 72.98631391 2.48435405 74.5356292 2.20703125 76.0847168 C1.23112977 81.56903232 0.37251215 87.06134253 -0.375 92.58203125 C-1.07849017 95.30365884 -2.18318833 96.88203205 -4 99 C-3.98839844 98.17757812 -3.97679687 97.35515625 -3.96484375 96.5078125 C-3.95582031 95.39148438 -3.94679688 94.27515625 -3.9375 93.125 C-3.92589844 92.03445312 -3.91429687 90.94390625 -3.90234375 89.8203125 C-3.97431979 87.00460965 -4.1586271 84.36364937 -4.4765625 81.578125 C-4.95568737 77.10883462 -5.14172539 72.6552263 -5.24609375 68.1640625 C-5.26274582 67.47172516 -5.27939789 66.77938782 -5.29655457 66.06607056 C-5.36318702 63.1855873 -5.42535242 60.30511345 -5.47680664 57.42431641 C-5.51650871 55.29561973 -5.56797115 53.16746071 -5.62109375 51.0390625 C-5.6461499 49.78303223 -5.67120605 48.52700195 -5.69702148 47.23291016 C-5.78183915 44.09746785 -5.78183915 44.09746785 -7.07543945 41.97485352 C-8.49327502 38.94636872 -7.74346323 36.61435598 -7.171875 33.36328125 C-6.94886719 32.06326172 -6.72585938 30.76324219 -6.49609375 29.42382812 C-6.24751241 28.05336427 -5.99881369 26.68292169 -5.75 25.3125 C-5.51578344 23.96178635 -5.28269921 22.61087584 -5.05078125 21.25976562 C-1.65061815 1.65061815 -1.65061815 1.65061815 0 0 Z " fill="#E4E5E5" transform="translate(614,87)"/>
<path d="M0 0 C2 3 2 3 2 5 C2.66 5 3.32 5 4 5 C5.4606285 7.64738916 6 8.89448334 6 12 C6.66 12 7.32 12 8 12 C8.99 13.98 9.98 15.96 11 18 C10.34 18.33 9.68 18.66 9 19 C9 20.32 9 21.64 9 23 C8.34 23.33 7.68 23.66 7 24 C5.86649466 26.01669827 5.86649466 26.01669827 5 28 C4.34 28 3.68 28 3 28 C3 29.98 3 31.96 3 34 C2.34 34 1.68 34 1 34 C-1.02644474 31.5039414 -2.59359119 28.68832177 -4.25 25.9375 C-4.7346875 25.18533203 -5.219375 24.43316406 -5.71875 23.65820312 C-9.07696797 18.08529831 -9.07696797 18.08529831 -8.84960938 14.87939453 C-8.296875 12.94140625 -8.296875 12.94140625 -7 10 C-6.34 10 -5.68 10 -5 10 C-4.731875 9.0925 -4.46375 8.185 -4.1875 7.25 C-3.10423706 4.28528037 -2.01640543 2.3830246 0 0 Z " fill="#E1E2E3" transform="translate(514,86)"/>
<path d="M0 0 C0.66 1.32 1.32 2.64 2 4 C1.67 4.33 1.34 4.66 1 5 C1.66 5.66 2.32 6.32 3 7 C3.31884766 10.07275391 3.31884766 10.07275391 3.4140625 13.9765625 C3.43342865 14.66181 3.4527948 15.3470575 3.4727478 16.05307007 C3.53256831 18.24358644 3.57893756 20.4341553 3.625 22.625 C3.66317763 24.10939802 3.70222924 25.59377384 3.7421875 27.078125 C3.83827084 30.71854685 3.92229282 34.35913436 4 38 C3.01 38 2.02 38 1 38 C1 38.66 1 39.32 1 40 C-1.31 40 -3.62 40 -6 40 C-7.5117417 36.00771533 -6.57490194 32.30082149 -5.8203125 28.2421875 C-5.68809296 27.49792511 -5.55587341 26.75366272 -5.41964722 25.98684692 C-5.13928073 24.41777833 -4.8549403 22.8494153 -4.56689453 21.28173828 C-4.12557573 18.87813566 -3.69652221 16.47259123 -3.26953125 14.06640625 C-2.99550541 12.54153823 -2.72078948 11.01679403 -2.4453125 9.4921875 C-2.25148483 8.41093094 -2.25148483 8.41093094 -2.05374146 7.30783081 C-1.11682091 2.23364182 -1.11682091 2.23364182 0 0 Z " fill="#A0A1A0" transform="translate(601,159)"/>
<path d="M0 0 C3.3 0 6.6 0 10 0 C10.88715864 3.54863456 11.07336817 4.80837787 10.50268555 8.18603516 C10.36892014 9.00012848 10.23515472 9.8142218 10.09733582 10.65298462 C9.94533218 11.52289032 9.79332855 12.39279602 9.63671875 13.2890625 C9.48467484 14.1886972 9.33263092 15.08833191 9.17597961 16.01522827 C8.85286442 17.91383515 8.52563221 19.81174533 8.19458008 21.70898438 C7.68851577 24.61915872 7.19985428 27.53188837 6.71289062 30.4453125 C6.39687408 32.28924117 6.0798511 34.13299769 5.76171875 35.9765625 C5.61578781 36.85051666 5.46985687 37.72447083 5.31950378 38.62490845 C5.17628189 39.43269745 5.03306 40.24048645 4.88549805 41.07275391 C4.76256882 41.78460846 4.63963959 42.49646301 4.51298523 43.22988892 C4 45 4 45 2 47 C-0.03524001 43.49486442 -0.03038164 41.35710882 0.9375 37.5625 C1.15277344 36.84191406 1.36804688 36.12132812 1.58984375 35.37890625 C2.14853362 32.93670392 2.14853362 32.93670392 1.51806641 30.2434082 C0.99325913 26.95779812 0.97320927 24.04574745 1.12109375 20.7265625 C1.16943359 19.57285156 1.21777344 18.41914062 1.26757812 17.23046875 C1.32365234 16.04066406 1.37972656 14.85085937 1.4375 13.625 C1.48970703 12.41199219 1.54191406 11.19898437 1.59570312 9.94921875 C1.72490392 6.96585487 1.85985041 3.98286627 2 1 C1.34 0.67 0.68 0.34 0 0 Z " fill="#9B9C9C" transform="translate(618,86)"/>
<path d="M0 0 C0.66 0 1.32 0 2 0 C2.01030746 0.62782883 2.02061493 1.25565765 2.03123474 1.9025116 C2.13945945 8.44007444 2.25404439 14.97750391 2.37231445 21.51489258 C2.41561209 23.9543173 2.45729083 26.39377132 2.49731445 28.83325195 C2.55514208 32.34074734 2.61880085 35.84809597 2.68359375 39.35546875 C2.70030624 40.44522507 2.71701874 41.53498138 2.73423767 42.65776062 C2.75418289 43.67844131 2.77412811 44.69912201 2.79467773 45.75073242 C2.81022202 46.64563889 2.8257663 47.54054535 2.84178162 48.46257019 C3.00326283 51.05232763 3.49086497 53.45958603 4 56 C3.765625 58.97265625 3.765625 58.97265625 3.25 62.0625 C3.01023437 63.59583984 3.01023437 63.59583984 2.765625 65.16015625 C1.97632851 68.08780191 0.97693015 69.73522013 -1 72 C-0.98259766 70.78376953 -0.98259766 70.78376953 -0.96484375 69.54296875 C-0.95582031 68.43566406 -0.94679688 67.32835937 -0.9375 66.1875 C-0.92589844 65.10855469 -0.91429687 64.02960938 -0.90234375 62.91796875 C-0.97815075 59.87659207 -1.19206134 56.9798415 -1.51147461 53.96264648 C-2.04888361 48.1752225 -2.05737201 42.4854439 -1.9140625 36.6796875 C-1.89282318 35.65440948 -1.87158386 34.62913147 -1.84970093 33.57278442 C-1.80383235 31.42996727 -1.75494317 29.28721278 -1.703125 27.14453125 C-1.6243808 23.84908661 -1.55765269 20.55354498 -1.4921875 17.2578125 C-1.44601949 15.16925509 -1.3991697 13.0807126 -1.3515625 10.9921875 C-1.33171295 10.00378876 -1.3118634 9.01539001 -1.29141235 7.99703979 C-1.25665298 6.63894699 -1.25665298 6.63894699 -1.22119141 5.25341797 C-1.20263092 4.45386688 -1.18407043 3.6543158 -1.16494751 2.83053589 C-1 1 -1 1 0 0 Z " fill="#E1E2E4" transform="translate(611,114)"/>
<path d="M0 0 C1.0457299 1.29777762 2.04422943 2.63461347 3 4 C2.71202981 5.34386088 2.36784131 6.6757713 2 8 C2.25036397 9.97161628 2.50124732 11.94462958 2.84375 13.90234375 C3 16 3 16 2.51586914 18.02636719 C1.78316271 22.24991871 1.87761358 26.39750998 1.90234375 30.67578125 C1.9037587 31.6009404 1.90517365 32.52609955 1.90663147 33.47929382 C1.91221285 36.42372927 1.92476195 39.36808767 1.9375 42.3125 C1.94251741 44.31314994 1.94707989 46.31380108 1.95117188 48.31445312 C1.96217619 53.20966494 1.97942802 58.10481942 2 63 C1.01 62.67 0.02 62.34 -1 62 C-1.33 52.1 -1.66 42.2 -2 32 C-2.66 31.67 -3.32 31.34 -4 31 C-4 30.34 -4 29.68 -4 29 C-3.34 29 -2.68 29 -2 29 C-2.33386719 28.42894531 -2.66773438 27.85789063 -3.01171875 27.26953125 C-6.27010152 19.78684195 -1.6497095 7.7816486 0 0 Z " fill="#B2B3B3" transform="translate(605,134)"/>
<path d="M0 0 C0.66 0 1.32 0 2 0 C1.99476318 0.79172607 1.98952637 1.58345215 1.98413086 2.39916992 C1.96331063 5.99527184 1.95032373 9.59136105 1.9375 13.1875 C1.92912109 14.43337891 1.92074219 15.67925781 1.91210938 16.96289062 C1.90888672 18.16494141 1.90566406 19.36699219 1.90234375 20.60546875 C1.89448853 22.26292114 1.89448853 22.26292114 1.88647461 23.95385742 C1.99110274 26.76126637 2.43179374 29.25910097 3 32 C2.58083585 34.59083366 1.9383867 37.05909484 1.27734375 39.59765625 C0.9462019 42.4659976 1.66135129 43.50960825 3 46 C2.625 49.75 2.625 49.75 2 53 C-2.74710409 45.87934386 -2.46776474 38.32186099 -2 30 C-1.83282471 29.39849121 -1.66564941 28.79698242 -1.4934082 28.17724609 C-0.87707579 25.45757641 -0.90578827 22.9639908 -0.9375 20.17578125 C-0.94523438 19.06525391 -0.95296875 17.95472656 -0.9609375 16.81054688 C-0.97382812 15.65619141 -0.98671875 14.50183594 -1 13.3125 C-1.02537896 11.01697284 -1.04645612 8.72139264 -1.0625 6.42578125 C-1.07410156 5.40911377 -1.08570313 4.39244629 -1.09765625 3.3449707 C-1 1 -1 1 0 0 Z " fill="#AFB0AF" transform="translate(618,87)"/>
<path d="M0 0 C0.66 0.33 1.32 0.66 2 1 C2.02467203 6.94482112 2.04284663 12.8896126 2.05493164 18.83447266 C2.05996831 20.85791543 2.06679789 22.88135456 2.07543945 24.90478516 C2.08753412 27.80892843 2.09323488 30.71302369 2.09765625 33.6171875 C2.10281754 34.52556366 2.10797882 35.43393982 2.11329651 36.36984253 C2.11337204 37.21056305 2.11344757 38.05128357 2.11352539 38.91748047 C2.115746 39.65916473 2.11796661 40.400849 2.12025452 41.16500854 C2 43 2 43 1 45 C2.98 44.505 2.98 44.505 5 44 C4.01 48.95 3.02 53.9 2 59 C-0.22140672 55.66788991 -0.26892041 54.52189469 -0.3347168 50.62646484 C-0.35781418 49.52877777 -0.38091156 48.4310907 -0.40470886 47.30014038 C-0.41939713 46.11570343 -0.43408539 44.93126648 -0.44921875 43.7109375 C-0.47095657 42.49677155 -0.4926944 41.28260559 -0.51509094 40.03164673 C-0.559025 37.46453198 -0.59822084 34.89733245 -0.63305664 32.33007812 C-0.68737827 28.38384294 -0.75752442 24.4381253 -0.83007812 20.4921875 C-0.87072581 18.00261924 -0.91047034 15.51303604 -0.94921875 13.0234375 C-0.96997971 11.83495209 -0.99074066 10.64646667 -1.01213074 9.42196655 C-1.02577164 8.3305838 -1.03941254 7.23920105 -1.0534668 6.11474609 C-1.06741989 5.14894623 -1.08137299 4.18314636 -1.0957489 3.18807983 C-1 1 -1 1 0 0 Z " fill="#D3D4D6" transform="translate(613,109)"/>
<path d="M0 0 C0.66 1.32 1.32 2.64 2 4 C1.505 4.433125 1.01 4.86625 0.5 5.3125 C-1.33218192 6.99740483 -1.33218192 6.99740483 -1 10 C-1.99 10.66 -2.98 11.32 -4 12 C-4.33 12.99 -4.66 13.98 -5 15 C-4.34 14.67 -3.68 14.34 -3 14 C-1.12943209 13.7724985 0.74685958 13.59037189 2.625 13.4375 C3.62789063 13.35371094 4.63078125 13.26992187 5.6640625 13.18359375 C6.43492187 13.12300781 7.20578125 13.06242188 8 13 C7.979375 11.741875 7.95875 10.48375 7.9375 9.1875 C7.89113917 6.35948913 8.08307039 4.75078884 9 2 C10.65 2.66 12.3 3.32 14 4 C14.05399736 5.45792884 14.09279177 6.91642712 14.125 8.375 C14.14820313 9.18710938 14.17140625 9.99921875 14.1953125 10.8359375 C14 13 14 13 12 15 C8.69005287 16.65497356 5.00877 16.10084335 1.375 16.0625 C0.57320313 16.05798828 -0.22859375 16.05347656 -1.0546875 16.04882812 C-3.03649006 16.03703168 -5.01825433 16.01909605 -7 16 C-7.33 15.34 -7.66 14.68 -8 14 C-6.75717988 11.54961707 -5.47117661 9.226675 -4.0625 6.875 C-3.48338867 5.88693359 -3.48338867 5.88693359 -2.89257812 4.87890625 C-1.93553422 3.248387 -0.96867185 1.62363816 0 0 Z " fill="#868686" transform="translate(457,183)"/>
<path d="M0 0 C0.33 0.66 0.66 1.32 1 2 C1.66 2 2.32 2 3 2 C3.02901394 5.4374823 3.04680335 8.87493312 3.0625 12.3125 C3.07087891 13.28896484 3.07925781 14.26542969 3.08789062 15.27148438 C3.09111328 16.20927734 3.09433594 17.14707031 3.09765625 18.11328125 C3.10289307 18.97735596 3.10812988 19.84143066 3.11352539 20.73168945 C3 23 3 23 2 26 C0.35 26 -1.3 26 -3 26 C-4.09964408 22.64283117 -3.88421538 20.24500139 -3.22265625 16.796875 C-3.03896484 15.8171875 -2.85527344 14.8375 -2.66601562 13.828125 C-2.46685547 12.81234375 -2.26769531 11.7965625 -2.0625 10.75 C-1.86720703 9.71875 -1.67191406 8.6875 -1.47070312 7.625 C-0.98796618 5.08180048 -0.49747983 2.54034954 0 0 Z " fill="#8D8D8D" transform="translate(598,173)"/>
<path d="M0 0 C2.61885488 2.36944013 4.41866551 4.83733102 6 8 C5.67 8.99 5.34 9.98 5 11 C4.505 10.01 4.505 10.01 4 9 C3.25275665 9.00666183 2.50551331 9.01332367 1.73562622 9.02018738 C-5.29803774 9.08023762 -12.33161328 9.12594321 -19.36546135 9.15543652 C-22.9818704 9.17110901 -26.59806808 9.19237553 -30.21435547 9.22631836 C-33.70269988 9.25885631 -37.19084068 9.27684108 -40.6793251 9.28463173 C-42.66143769 9.29289269 -44.64346809 9.31632087 -46.62545776 9.33988953 C-47.82655182 9.34011612 -49.02764587 9.34034271 -50.26513672 9.34057617 C-51.32658905 9.34723801 -52.38804138 9.35389984 -53.48165894 9.36076355 C-54.31271149 9.24171158 -55.14376404 9.12265961 -56 9 C-56.66 8.01 -57.32 7.02 -58 6 C-57.45728455 6.16076523 -56.91456909 6.32153046 -56.35540771 6.48716736 C-53.62660096 7.08129854 -51.10683487 7.16206229 -48.31347656 7.20532227 C-46.60215546 7.2352401 -46.60215546 7.2352401 -44.85626221 7.26576233 C-43.63010193 7.28247482 -42.40394165 7.29918732 -41.140625 7.31640625 C-39.25135284 7.3475779 -39.25135284 7.3475779 -37.32391357 7.37937927 C-33.98341129 7.43366302 -30.64289778 7.48392069 -27.30230713 7.53222656 C-23.89028607 7.58255704 -20.47835177 7.6381827 -17.06640625 7.69335938 C-10.37767336 7.80045114 -3.68887537 7.9022354 3 8 C3 7.34 3 6.68 3 6 C1.02 6 -0.96 6 -3 6 C-2.01 4.02 -1.02 2.04 0 0 Z " fill="#5C5C5C" transform="translate(565,175)"/>
<path d="M0 0 C0.66 0.33 1.32 0.66 2 1 C2.2910852 3.54774576 2.46768118 6.0060936 2.5625 8.5625 C2.63059052 10.03526066 2.70087483 11.50792166 2.7734375 12.98046875 C2.80791992 13.68349121 2.84240234 14.38651367 2.87792969 15.11083984 C3.01479309 17.22893788 3.31556695 19.2861202 3.6875 21.375 C4.09391146 26.08937291 3.49978383 30.50064851 2 35 C-0.70879335 36.35439668 -3.00933268 36.06501451 -6 36 C-6 35.34 -6 34.68 -6 34 C-4.02 34 -2.04 34 0 34 C0 22.78 0 11.56 0 0 Z " fill="#D3D4D6" transform="translate(608,163)"/>
<path d="M0 0 C1.0457299 1.29777762 2.04422943 2.63461347 3 4 C2.71202981 5.34386088 2.36784131 6.6757713 2 8 C2.25698641 10.02376795 2.51594309 12.04748715 2.80859375 14.06640625 C3.05345541 16.54000872 2.52007999 18.57296004 2 21 C1.90721946 24.33494481 1.94171105 27.6645767 2 31 C1.34 30.67 0.68 30.34 0 30 C-0.484375 27.8203125 -0.484375 27.8203125 -0.75 25.125 C-0.84796875 24.24070313 -0.9459375 23.35640625 -1.046875 22.4453125 C-1 20 -1 20 1 17 C0.01 17.33 -0.98 17.66 -2 18 C-3.29132785 14.12601645 -2.41113572 11.18011214 -1.5625 7.3125 C-1.41490234 6.61060547 -1.26730469 5.90871094 -1.11523438 5.18554688 C-0.7504068 3.45555806 -0.37611311 1.72757037 0 0 Z " fill="#BABCBB" transform="translate(605,134)"/>
<path d="M0 0 C1.11248885 3.33746656 0.87090488 4.70707443 0.22265625 8.10546875 C0.03896484 9.08837891 -0.14472656 10.07128906 -0.33398438 11.08398438 C-0.53314453 12.10814453 -0.73230469 13.13230469 -0.9375 14.1875 C-1.13279297 15.22326172 -1.32808594 16.25902344 -1.52929688 17.32617188 C-2.01284959 19.88546309 -2.50333331 22.44322701 -3 25 C-3.33 25 -3.66 25 -4 25 C-4.79733605 20.77092959 -5.16210046 16.74018192 -5.1875 12.4375 C-5.20167969 11.34308594 -5.21585938 10.24867187 -5.23046875 9.12109375 C-4.99625313 5.94925845 -4.51798954 3.7888645 -3 1 C-2.01 0.67 -1.02 0.34 0 0 Z " fill="#828383" transform="translate(628,87)"/>
<path d="M0 0 C0.66 0 1.32 0 2 0 C3.76171875 2.51953125 3.76171875 2.51953125 5.6875 5.8125 C6.33074219 6.89144531 6.97398437 7.97039062 7.63671875 9.08203125 C9 12 9 12 8 15 C7.01 14.67 6.02 14.34 5 14 C5 13.01 5 12.02 5 11 C2.36 10.67 -0.28 10.34 -3 10 C-3.75 8.375 -3.75 8.375 -4 6 C-2.1875 2.75 -2.1875 2.75 0 0 Z " fill="#D5D7D8" transform="translate(503,104)"/>
<path d="M0 0 C0.66 0 1.32 0 2 0 C0.64878088 3.42308844 -0.82638522 6.66000439 -2.5 9.9375 C-4.05210149 12.93413357 -4.05210149 12.93413357 -5 16 C-5.66 16.33 -6.32 16.66 -7 17 C-7 17.99 -7 18.98 -7 20 C-7.99 20 -8.98 20 -10 20 C-10.66 21.32 -11.32 22.64 -12 24 C-13 21 -13 21 -12.13549805 18.94702148 C-11.68215088 18.17946533 -11.22880371 17.41190918 -10.76171875 16.62109375 C-10.02598633 15.36329102 -10.02598633 15.36329102 -9.27539062 14.08007812 C-8.75138672 13.20802734 -8.22738281 12.33597656 -7.6875 11.4375 C-7.17509766 10.56158203 -6.66269531 9.68566406 -6.13476562 8.78320312 C-2.31643562 2.31643562 -2.31643562 2.31643562 0 0 Z " fill="#B6BAB8" transform="translate(495,119)"/>
<path d="M0 0 C0.66 1.32 1.32 2.64 2 4 C1.67 4.33 1.34 4.66 1 5 C1.99 6.485 1.99 6.485 3 8 C2.64477539 9.87597656 2.64477539 9.87597656 2 12 C1.85701869 13.6586512 1.75458775 15.3210869 1.68359375 16.984375 C1.64169922 17.91894531 1.59980469 18.85351562 1.55664062 19.81640625 C1.49766602 21.26853516 1.49766602 21.26853516 1.4375 22.75 C1.39431641 23.73355469 1.35113281 24.71710938 1.30664062 25.73046875 C1.20077948 28.15351275 1.09869829 30.5766554 1 33 C0.67 33 0.34 33 0 33 C0 27.39 0 21.78 0 16 C-0.66 16 -1.32 16 -2 16 C-3.26977059 12.19068824 -2.52074507 10.18381007 -1.5625 6.3125 C-1.27503906 5.13300781 -0.98757813 3.95351562 -0.69140625 2.73828125 C-0.46324219 1.83464844 -0.23507812 0.93101562 0 0 Z " fill="#989999" transform="translate(601,159)"/>
<path d="M0 0 C0.66 0.33 1.32 0.66 2 1 C2 15.19 2 29.38 2 44 C1.67 44 1.34 44 1 44 C0.98018066 43.08186523 0.96036133 42.16373047 0.93994141 41.21777344 C0.86173045 37.80328175 0.77503416 34.38922298 0.68261719 30.97509766 C0.64439334 29.49894464 0.60952897 28.02270057 0.578125 26.54638672 C0.53233014 24.42121906 0.47436163 22.29667458 0.4140625 20.171875 C0.3826416 18.8940918 0.3512207 17.61630859 0.31884766 16.29980469 C0.0214662 13.22215708 -0.51595395 11.62957243 -2 9 C-1.7578125 6.640625 -1.7578125 6.640625 -1.125 4.25 C-0.92132812 3.45078125 -0.71765625 2.6515625 -0.5078125 1.828125 C-0.34023438 1.22484375 -0.17265625 0.6215625 0 0 Z " fill="#D6D7D8" transform="translate(608,118)"/>
<path d="M0 0 C0.33 0 0.66 0 1 0 C1 11.55 1 23.1 1 35 C0.67 35 0.34 35 0 35 C-0.09087891 33.35451172 -0.09087891 33.35451172 -0.18359375 31.67578125 C-0.26804498 30.22134346 -0.35269066 28.76691695 -0.4375 27.3125 C-0.47681641 26.59126953 -0.51613281 25.87003906 -0.55664062 25.12695312 C-0.73859131 22.0617839 -0.96228053 19.17873604 -1.59765625 16.16796875 C-2 14 -2 14 -1 11 C-1.37125 10.05125 -1.7425 9.1025 -2.125 8.125 C-3 5 -3 5 -1.6875 2.125 C-0.8521875 1.073125 -0.8521875 1.073125 0 0 Z " fill="#CBCCCD" transform="translate(608,127)"/>
<path d="M0 0 C1.98 0 3.96 0 6 0 C6 0.66 6 1.32 6 2 C5.01 2 4.02 2 3 2 C1.32671164 9.14467571 1.34776524 16.96504155 2.625 24.1875 C2.74875 25.115625 2.8725 26.04375 3 27 C2.34 27.66 1.68 28.32 1 29 C-0.77487553 25.20491631 -1.19952581 22.43113263 -0.9765625 18.26171875 C-0.925 17.19501953 -0.8734375 16.12832031 -0.8203125 15.02929688 C-0.75585938 13.92650391 -0.69140625 12.82371094 -0.625 11.6875 C-0.56828125 10.56537109 -0.5115625 9.44324219 -0.453125 8.28710938 C-0.31203308 5.52405926 -0.16065719 2.76197015 0 0 Z " fill="#8E8F8E" transform="translate(622,86)"/>
<path d="M0 0 C0.66 0 1.32 0 2 0 C3 3 3 3 2.19555664 4.90112305 C1.77137451 5.59761963 1.34719238 6.29411621 0.91015625 7.01171875 C0.45576172 7.76904297 0.00136719 8.52636719 -0.46679688 9.30664062 C-0.95212891 10.09232422 -1.43746094 10.87800781 -1.9375 11.6875 C-2.65969727 12.88342773 -2.65969727 12.88342773 -3.39648438 14.10351562 C-4.58865439 16.07472743 -5.7900261 18.03968412 -7 20 C-7.33 19.01 -7.66 18.02 -8 17 C-7.67 16.34 -7.34 15.68 -7 15 C-6.32650839 13.33607955 -5.6590841 11.66967972 -5 10 C-5.99 9.01 -6.98 8.02 -8 7 C-7.05125 6.773125 -6.1025 6.54625 -5.125 6.3125 C-1.80676612 5.30916286 -1.80676612 5.30916286 -0.625 2.375 C-0.41875 1.59125 -0.2125 0.8075 0 0 Z " fill="#BCBEBE" transform="translate(497,139)"/>
<path d="M0 0 C1.32 1.32 2.64 2.64 4 4 C3.34 4.66 2.68 5.32 2 6 C1.34 5.67 0.68 5.34 0 5 C-1.20628008 7.33214148 -2.1654738 9.49642139 -3 12 C-3.99 12 -4.98 12 -6 12 C-6 12.66 -6 13.32 -6 14 C-6.99 13.67 -7.98 13.34 -9 13 C-9 12.34 -9 11.68 -9 11 C-7.33333333 9.33333333 -5.66666667 7.66666667 -4 6 C-2.56354621 4.04954357 -1.2896367 2.05386585 0 0 Z " fill="#A8A8A8" transform="translate(484,171)"/>
<path d="M0 0 C1.875 0.1875 1.875 0.1875 4 1 C5.3125 3.25 5.3125 3.25 6 6 C4.8828125 8.45703125 4.8828125 8.45703125 3.125 10.8125 C2.26261719 11.99779297 2.26261719 11.99779297 1.3828125 13.20703125 C0.92648437 13.79871094 0.47015625 14.39039063 0 15 C-0.33 14.34 -0.66 13.68 -1 13 C-0.0625 10.375 -0.0625 10.375 1 8 C0.01 8 -0.98 8 -2 8 C-1.67 7.4225 -1.34 6.845 -1 6.25 C0.27075898 3.80116138 0.27075898 3.80116138 0 0 Z " fill="#DDDDDF" transform="translate(507,148)"/>
<path d="M0 0 C1.98 0.495 1.98 0.495 4 1 C3.814375 1.5775 3.62875 2.155 3.4375 2.75 C2.8263972 4.9456246 2.8263972 4.9456246 3.5625 6.8125 C4.23134186 10.15670931 3.04035167 12.81774782 2 16 C1.01 15.67 0.02 15.34 -1 15 C-1 14.34 -1 13.68 -1 13 C-0.34 13 0.32 13 1 13 C0.66226563 12.43796875 0.32453125 11.8759375 -0.0234375 11.296875 C-1.1689058 8.60273356 -1.0470026 7.11961767 -0.625 4.25 C-0.51414062 3.45078125 -0.40328125 2.6515625 -0.2890625 1.828125 C-0.19367187 1.22484375 -0.09828125 0.6215625 0 0 Z " fill="#A5A7A6" transform="translate(602,150)"/>
<path d="M0 0 C2 1 2 1 3.25 4.375 C4.5234786 9.76279408 3.26447157 14.7086728 2 20 C1.67 20 1.34 20 1 20 C-0.05619003 15.71702469 -0.11702092 11.57014354 -0.0625 7.1875 C-0.05798828 6.49462891 -0.05347656 5.80175781 -0.04882812 5.08789062 C-0.03713156 3.39188932 -0.01919924 1.69593297 0 0 Z " fill="#BABCBB" transform="translate(616,133)"/>
<path d="M0 0 C0.87371246 0.24114784 0.87371246 0.24114784 1.76507568 0.48716736 C5.22844927 1.28188377 8.72783374 1.23930078 12.265625 1.31640625 C13.45572174 1.3475779 13.45572174 1.3475779 14.66986084 1.37937927 C17.19648844 1.44459973 19.72321721 1.50363144 22.25 1.5625 C23.96615616 1.6057114 25.68230222 1.64932653 27.3984375 1.69335938 C31.59885546 1.80025283 35.79937489 1.90159729 40 2 C40 2.33 40 2.66 40 3 C34.62486811 3.0740324 29.25003146 3.12854569 23.87451172 3.16479492 C22.04503207 3.17990251 20.21558875 3.20038968 18.38623047 3.22631836 C15.76000008 3.26261585 13.13424751 3.27970615 10.5078125 3.29296875 C9.68693146 3.30845261 8.86605042 3.32393646 8.02029419 3.33988953 C5.71533203 3.34057617 5.71533203 3.34057617 2 3 C1.34 2.01 0.68 1.02 0 0 Z " fill="#747474" transform="translate(507,181)"/>
<path d="M0 0 C2.0625 0.4375 2.0625 0.4375 4 1 C3.01 1 2.02 1 1 1 C1.01160156 1.95261719 1.02320313 2.90523438 1.03515625 3.88671875 C1.04417969 5.14097656 1.05320312 6.39523438 1.0625 7.6875 C1.07410156 8.92886719 1.08570313 10.17023438 1.09765625 11.44921875 C1.01478673 14.46235454 0.70839449 17.08275339 0 20 C-2 18 -2 18 -2.0625 15 C-2.041875 14.01 -2.02125 13.02 -2 12 C-2.33 11.34 -2.66 10.68 -3 10 C-2.6953125 7.87109375 -2.6953125 7.87109375 -2.125 5.4375 C-1.94195313 4.63183594 -1.75890625 3.82617188 -1.5703125 2.99609375 C-1 1 -1 1 0 0 Z " fill="#D7D8D7" transform="translate(614,87)"/>
<path d="M0 0 C0.66 1.32 1.32 2.64 2 4 C1.505 4.433125 1.01 4.86625 0.5 5.3125 C-1.33218192 6.99740483 -1.33218192 6.99740483 -1 10 C-1.99 10.66 -2.98 11.32 -4 12 C-4.33 12.99 -4.66 13.98 -5 15 C-3.02 15 -1.04 15 1 15 C1 15.33 1 15.66 1 16 C-1.64 16 -4.28 16 -7 16 C-7.33 15.34 -7.66 14.68 -8 14 C-6.75717988 11.54961707 -5.47117661 9.226675 -4.0625 6.875 C-3.48338867 5.88693359 -3.48338867 5.88693359 -2.89257812 4.87890625 C-1.93553422 3.248387 -0.96867185 1.62363816 0 0 Z " fill="#646464" transform="translate(457,183)"/>
<path d="M0 0 C0.625 1.8125 0.625 1.8125 1 4 C-1 7 -1 7 -3 8 C-5.0234375 8.16796875 -5.0234375 8.16796875 -7.375 8.1875 C-8.53128906 8.20876953 -8.53128906 8.20876953 -9.7109375 8.23046875 C-12.21834888 7.97801607 -13.83261902 7.25193467 -16 6 C-15.15695312 5.97421875 -14.31390625 5.9484375 -13.4453125 5.921875 C-12.34960938 5.86515625 -11.25390625 5.8084375 -10.125 5.75 C-9.03445313 5.70359375 -7.94390625 5.6571875 -6.8203125 5.609375 C-5.88960938 5.40828125 -4.95890625 5.2071875 -4 5 C-2.68583478 3.08071534 -2.68583478 3.08071534 -2 1 C-1.34 0.67 -0.68 0.34 0 0 Z " fill="#7F7F7F" transform="translate(470,191)"/>
<path d="M0 0 C3.97497544 3.40712181 5.86793788 7.32760855 8 12 C7.01 12.495 7.01 12.495 6 13 C6 12.01 6 11.02 6 10 C3.525 11.485 3.525 11.485 1 13 C0.67 12.34 0.34 11.68 0 11 C0.350625 10.195625 0.70125 9.39125 1.0625 8.5625 C1.371875 7.716875 1.68125 6.87125 2 6 C1.34 5.01 0.68 4.02 0 3 C0 2.01 0 1.02 0 0 Z " fill="#A4A5A5" transform="translate(544,139)"/>
<path d="M0 0 C0.99 0.66 1.98 1.32 3 2 C3.29296875 4.3828125 3.29296875 4.3828125 3.1875 7.125 C3.16042969 8.03507813 3.13335938 8.94515625 3.10546875 9.8828125 C3.07066406 10.58148438 3.03585937 11.28015625 3 12 C1.35 11.67 -0.3 11.34 -2 11 C-1.34 7.37 -0.68 3.74 0 0 Z " fill="#767676" transform="translate(596,185)"/>
<path d="M0 0 C2.4375 0.625 2.4375 0.625 5 2 C6.47368421 7.05263158 6.47368421 7.05263158 5 10 C4.34 10 3.68 10 3 10 C-0.22265625 4.82421875 -0.22265625 4.82421875 -1 3 C-0.67 2.01 -0.34 1.02 0 0 Z " fill="#C5C7C6" transform="translate(527,136)"/>
<path d="M0 0 C0.598125 0.350625 1.19625 0.70125 1.8125 1.0625 C1.1525 3.3725 0.4925 5.6825 -0.1875 8.0625 C-2.91176311 5.70972731 -4.0016763 3.43753669 -5.1875 0.0625 C-2.1875 -0.9375 -2.1875 -0.9375 0 0 Z " fill="#DBDCDE" transform="translate(510.1875,100.9375)"/>
<path d="M0 0 C8 9.42857143 8 9.42857143 8 14 C6.68 13.67 5.36 13.34 4 13 C3.67 10.69 3.34 8.38 3 6 C2.01 5.67 1.02 5.34 0 5 C0 3.35 0 1.7 0 0 Z " fill="#CECFCE" transform="translate(525,105)"/>
<path d="M0 0 C1.5625 1.25 1.5625 1.25 3 3 C2.6875 5.1875 2.6875 5.1875 2 7 C0.02 7.33 -1.96 7.66 -4 8 C-4 6.68 -4 5.36 -4 4 C-3.01 3.67 -2.02 3.34 -1 3 C-0.67 2.01 -0.34 1.02 0 0 Z " fill="#E0E1E3" transform="translate(517,127)"/>
<path d="M0 0 C0.66 0 1.32 0 2 0 C0.15704984 4.66880708 -1.6801603 8.17715428 -5 12 C-5.66 12 -6.32 12 -7 12 C-5.45052978 7.60983438 -3.33033996 3.33033996 0 0 Z " fill="#C2C3C3" transform="translate(495,119)"/>
<path d="M0 0 C2.475 0.99 2.475 0.99 5 2 C3.68 4.64 2.36 7.28 1 10 C0.34 10 -0.32 10 -1 10 C-1 9.01 -1 8.02 -1 7 C-0.34 7 0.32 7 1 7 C0.34 5.02 -0.32 3.04 -1 1 C-0.67 0.67 -0.34 0.34 0 0 Z " fill="#CACBCD" transform="translate(498,168)"/>
<path d="M0 0 C0.66 0 1.32 0 2 0 C2.66 1.98 3.32 3.96 4 6 C1.36 6 -1.28 6 -4 6 C-3.6875 4.0625 -3.6875 4.0625 -3 2 C-2.01 1.67 -1.02 1.34 0 1 C0 0.67 0 0.34 0 0 Z " fill="#979897" transform="translate(539,161)"/>
<path d="M0 0 C0.144375 0.61875 0.28875 1.2375 0.4375 1.875 C0.93152225 4.03258322 0.93152225 4.03258322 2 6 C1.67 6.66 1.34 7.32 1 8 C0.01 8 -0.98 8 -2 8 C-2.99 5.69 -3.98 3.38 -5 1 C-2 0 -2 0 0 0 Z " fill="#CED0CF" transform="translate(526,128)"/>
<path d="M0 0 C2 3 2 3 1.7578125 5.26171875 C1.54898438 6.06222656 1.34015625 6.86273438 1.125 7.6875 C0.92132812 8.49574219 0.71765625 9.30398437 0.5078125 10.13671875 C0.25644531 11.05904297 0.25644531 11.05904297 0 12 C-1.625 10.4375 -1.625 10.4375 -3 8 C-1.72340426 1.72340426 -1.72340426 1.72340426 0 0 Z " fill="#A2A2A2" transform="translate(621,121)"/>
<path d="M0 0 C1.17275118 3.51825355 0.80077874 5.43136041 0.1875 9.0625 C0.01605469 10.12597656 -0.15539062 11.18945312 -0.33203125 12.28515625 C-1 15 -1 15 -3 17 C-4.48602111 13.1363451 -3.40770863 10.77858633 -2 7 C-1.30284658 4.67459564 -0.65461069 2.33789531 0 0 Z " fill="#6D6D6D" transform="translate(628,87)"/>
<path d="M0 0 C0.99 0.66 1.98 1.32 3 2 C2.01 2.8971875 2.01 2.8971875 1 3.8125 C-1.3373846 5.87501834 -1.3373846 5.87501834 -1 9 C-2.32 9.33 -3.64 9.66 -5 10 C-3.66511872 6.40608886 -2.03977277 3.24509304 0 0 Z " fill="#7E7E7E" transform="translate(463,173)"/>
<path d="M0 0 C0.66 0.66 1.32 1.32 2 2 C1.96712417 4.72869407 1.43602229 7.2966618 1 10 C0.01 9.67 -0.98 9.34 -2 9 C-2.125 5.625 -2.125 5.625 -2 2 C-1.34 1.34 -0.68 0.68 0 0 Z " fill="#959595" transform="translate(622,113)"/>
<path d="M0 0 C0.66 0 1.32 0 2 0 C2.21278058 4.46839215 1.59138085 7.82262526 0 12 C-0.33 12 -0.66 12 -1 12 C-1.92470553 7.28400182 -2.22923777 4.32734391 0 0 Z " fill="#7A7A7A" transform="translate(625,88)"/>
<path d="M0 0 C1.625 1.625 1.625 1.625 3 4 C2.1875 7.25 2.1875 7.25 1 10 C-1.31 10 -3.62 10 -6 10 C-6 9.34 -6 8.68 -6 8 C-4.02 8 -2.04 8 0 8 C0 5.36 0 2.72 0 0 Z " fill="#D1D1D1" transform="translate(608,189)"/>
<path d="M0 0 C1.1577506 3.47325181 1.06866652 6.36067448 1 10 C0.01 9.67 -0.98 9.34 -2 9 C-3.20642438 6.08447442 -3.11307322 3.93446575 -2 1 C-1.34 0.67 -0.68 0.34 0 0 Z " fill="#828282" transform="translate(599,179)"/>
<path d="M0 0 C1.98 0.495 1.98 0.495 4 1 C3.814375 1.5775 3.62875 2.155 3.4375 2.75 C2.95976454 5.20692525 3.24270636 6.64397534 4 9 C3.01 9.495 3.01 9.495 2 10 C1.67 9.01 1.34 8.02 1 7 C0.34 6.67 -0.32 6.34 -1 6 C-0.67 4.02 -0.34 2.04 0 0 Z " fill="#AFB1B0" transform="translate(602,150)"/>
<path d="M0 0 C0.66 0 1.32 0 2 0 C3.23076923 5.41538462 3.23076923 5.41538462 2.0625 8.375 C1.711875 8.91125 1.36125 9.4475 1 10 C-1.125 3.375 -1.125 3.375 0 0 Z " fill="#ADADAD" transform="translate(618,130)"/>
<path d="M0 0 C0.76570313 0.23009766 0.76570313 0.23009766 1.546875 0.46484375 C4.7749338 1.16905403 7.95418001 1.34888204 11.25 1.5625 C12.51328125 1.64628906 13.7765625 1.73007813 15.078125 1.81640625 C16.04234375 1.87699219 17.0065625 1.93757812 18 2 C18 2.33 18 2.66 18 3 C15.37438891 3.08074203 12.75124324 3.1403623 10.125 3.1875 C9.00544922 3.22520508 9.00544922 3.22520508 7.86328125 3.26367188 C5.6953125 3.29296875 5.6953125 3.29296875 2 3 C1.34 2.01 0.68 1.02 0 0 Z " fill="#818182" transform="translate(507,181)"/>
<path d="M0 0 C2.2477975 2.05233685 3.0022242 3.00667261 4 6 C1.69 6 -0.62 6 -3 6 C-2.01 4.02 -1.02 2.04 0 0 Z " fill="#7A7A7A" transform="translate(565,175)"/>
<path d="M0 0 C2.97 0.495 2.97 0.495 6 1 C4.625 3.5 4.625 3.5 3 6 C2.34 6 1.68 6 1 6 C1 5.34 1 4.68 1 4 C0.34 3.67 -0.32 3.34 -1 3 C-0.67 2.01 -0.34 1.02 0 0 Z " fill="#BDBFBE" transform="translate(492,178)"/>
<path d="M0 0 C0.66 0.33 1.32 0.66 2 1 C0.79157144 5.43090471 -0.51668565 7.98112756 -4 11 C-3.5247412 9.35303396 -3.04468109 7.70745272 -2.5625 6.0625 C-2.29566406 5.14597656 -2.02882813 4.22945312 -1.75390625 3.28515625 C-1 1 -1 1 0 0 Z " fill="#ACACAC" transform="translate(485,161)"/>
<path d="M0 0 C1.32 1.65 2.64 3.3 4 5 C0.5647952 7.29013653 -0.985331 7.17842973 -5 7 C-4.360625 6.5875 -3.72125 6.175 -3.0625 5.75 C-0.79009069 3.82189513 -0.39803561 2.88575819 0 0 Z " fill="#AFB0AF" transform="translate(535,157)"/>
<path d="M0 0 C0.66 0.33 1.32 0.66 2 1 C2 2.32 2 3.64 2 5 C0.35 5.33 -1.3 5.66 -3 6 C-1.125 1.125 -1.125 1.125 0 0 Z " fill="#CDCECF" transform="translate(498,113)"/>
<path d="M0 0 C0.66 0.33 1.32 0.66 2 1 C1.67 2.65 1.34 4.3 1 6 C-0.65 6 -2.3 6 -4 6 C-4.33 5.01 -4.66 4.02 -5 3 C-2.525 3.495 -2.525 3.495 0 4 C0 2.68 0 1.36 0 0 Z " fill="#858585" transform="translate(599,193)"/>
<path d="M0 0 C2.09749995 2.35968744 2.96905704 3.54616994 3.1875 6.75 C3.125625 7.4925 3.06375 8.235 3 9 C1.68 9.33 0.36 9.66 -1 10 C-0.62875 9.443125 -0.2575 8.88625 0.125 8.3125 C1.29515863 5.94283647 1.29515863 5.94283647 0.125 3.25 C-0.24625 2.5075 -0.6175 1.765 -1 1 C-0.67 0.67 -0.34 0.34 0 0 Z " fill="#BBBBBB" transform="translate(532,152)"/>
<path d="M0 0 C2.0625 2.3125 2.0625 2.3125 4 5 C3.67 5.99 3.34 6.98 3 8 C2.01 7.67 1.02 7.34 0 7 C0 6.01 0 5.02 0 4 C-0.33 3.01 -0.66 2.02 -1 1 C-0.67 0.67 -0.34 0.34 0 0 Z " fill="#DFDFE2" transform="translate(508,111)"/>
<path d="M0 0 C1.98 0 3.96 0 6 0 C6 0.66 6 1.32 6 2 C5.01 2 4.02 2 3 2 C2.67 3.65 2.34 5.3 2 7 C1.67 7 1.34 7 1 7 C0.67 4.69 0.34 2.38 0 0 Z " fill="#858585" transform="translate(622,86)"/>
<path d="M0 0 C0.66 0.66 1.32 1.32 2 2 C1.01 3.98 0.02 5.96 -1 8 C-1.66 8 -2.32 8 -3 8 C-2.45276317 4.62537285 -1.9451 2.91765 0 0 Z " fill="#BDBEBE" transform="translate(496,150)"/>
<path d="M0 0 C0.99 0.33 1.98 0.66 3 1 C2.67 2.32 2.34 3.64 2 5 C0.68 5 -0.64 5 -2 5 C-2 4.34 -2 3.68 -2 3 C-1.34 2.67 -0.68 2.34 0 2 C0 1.34 0 0.68 0 0 Z " fill="#C7C7C9" transform="translate(505,135)"/>
<path d="" fill="#000000" transform="translate(0,0)"/>
<path d="" fill="#000000" transform="translate(0,0)"/>
<path d="" fill="#000000" transform="translate(0,0)"/>
<path d="" fill="#000000" transform="translate(0,0)"/>
<path d="" fill="#000000" transform="translate(0,0)"/>
<path d="" fill="#000000" transform="translate(0,0)"/>
<path d="" fill="#000000" transform="translate(0,0)"/>
<path d="" fill="#000000" transform="translate(0,0)"/>
<path d="" fill="#000000" transform="translate(0,0)"/>
<path d="" fill="#000000" transform="translate(0,0)"/>
<path d="" fill="#000000" transform="translate(0,0)"/>
<path d="" fill="#000000" transform="translate(0,0)"/>
<path d="" fill="#000000" transform="translate(0,0)"/>
<path d="" fill="#000000" transform="translate(0,0)"/>
<path d="" fill="#000000" transform="translate(0,0)"/>
<path d="" fill="#000000" transform="translate(0,0)"/>
<path d="" fill="#000000" transform="translate(0,0)"/>
<path d="" fill="#000000" transform="translate(0,0)"/>
<path d="" fill="#000000" transform="translate(0,0)"/>
<path d="" fill="#000000" transform="translate(0,0)"/>
<path d="" fill="#000000" transform="translate(0,0)"/>
<path d="" fill="#000000" transform="translate(0,0)"/>
<path d="" fill="#000000" transform="translate(0,0)"/>
<path d="" fill="#000000" transform="translate(0,0)"/>
<path d="" fill="#000000" transform="translate(0,0)"/>
<path d="" fill="#000000" transform="translate(0,0)"/>
<path d="" fill="#000000" transform="translate(0,0)"/>
<path d="" fill="#000000" transform="translate(0,0)"/>
<path d="" fill="#000000" transform="translate(0,0)"/>
<path d="" fill="#000000" transform="translate(0,0)"/>
<path d="" fill="#000000" transform="translate(0,0)"/>
<path d="" fill="#000000" transform="translate(0,0)"/>
<path d="" fill="#000000" transform="translate(0,0)"/>
<path d="" fill="#000000" transform="translate(0,0)"/>
<path d="" fill="#000000" transform="translate(0,0)"/>
<path d="" fill="#000000" transform="translate(0,0)"/>
<path d="" fill="#000000" transform="translate(0,0)"/>
<path d="" fill="#000000" transform="translate(0,0)"/>
<path d="" fill="#000000" transform="translate(0,0)"/>
<path d="" fill="#000000" transform="translate(0,0)"/>
<path d="" fill="#000000" transform="translate(0,0)"/>
<path d="" fill="#000000" transform="translate(0,0)"/>
<path d="" fill="#000000" transform="translate(0,0)"/>
<path d="" fill="#000000" transform="translate(0,0)"/>
<path d="" fill="#000000" transform="translate(0,0)"/>
<path d="" fill="#000000" transform="translate(0,0)"/>
<path d="" fill="#000000" transform="translate(0,0)"/>
<path d="" fill="#000000" transform="translate(0,0)"/>
<path d="" fill="#000000" transform="translate(0,0)"/>
<path d="" fill="#000000" transform="translate(0,0)"/>
<path d="" fill="#000000" transform="translate(0,0)"/>
<path d="" fill="#000000" transform="translate(0,0)"/>
<path d="" fill="#000000" transform="translate(0,0)"/>
<path d="" fill="#000000" transform="translate(0,0)"/>
<path d="" fill="#000000" transform="translate(0,0)"/>
<path d="" fill="#000000" transform="translate(0,0)"/>
<path d="" fill="#000000" transform="translate(0,0)"/>
<path d="" fill="#000000" transform="translate(0,0)"/>
<path d="" fill="#000000" transform="translate(0,0)"/>
<path d="" fill="#000000" transform="translate(0,0)"/>
<path d="" fill="#000000" transform="translate(0,0)"/>
<path d="" fill="#000000" transform="translate(0,0)"/>
<path d="" fill="#000000" transform="translate(0,0)"/>
<path d="" fill="#000000" transform="translate(0,0)"/>
<path d="" fill="#000000" transform="translate(0,0)"/>
<path d="" fill="#000000" transform="translate(0,0)"/>
<path d="" fill="#000000" transform="translate(0,0)"/>
<path d="" fill="#000000" transform="translate(0,0)"/>
<path d="" fill="#000000" transform="translate(0,0)"/>
<path d="" fill="#000000" transform="translate(0,0)"/>
<path d="" fill="#000000" transform="translate(0,0)"/>
<path d="" fill="#000000" transform="translate(0,0)"/>
<path d="" fill="#000000" transform="translate(0,0)"/>
<path d="" fill="#000000" transform="translate(0,0)"/>
<path d="" fill="#000000" transform="translate(0,0)"/>
<path d="" fill="#000000" transform="translate(0,0)"/>
<path d="" fill="#000000" transform="translate(0,0)"/>
<path d="" fill="#000000" transform="translate(0,0)"/>
<path d="" fill="#000000" transform="translate(0,0)"/>
<path d="" fill="#000000" transform="translate(0,0)"/>
<path d="" fill="#000000" transform="translate(0,0)"/>
<path d="" fill="#000000" transform="translate(0,0)"/>
<path d="" fill="#000000" transform="translate(0,0)"/>
<path d="" fill="#000000" transform="translate(0,0)"/>
<path d="" fill="#000000" transform="translate(0,0)"/>
<path d="" fill="#000000" transform="translate(0,0)"/>
</svg>
